<svg xmlns="http://www.w3.org/2000/svg" viewBox="0 0 512 512">
  <defs>
    <linearGradient id="bg" x1="0" y1="0" x2="1" y2="1">
      <stop offset="0%" stop-color="#7C8B6F"/>
      <stop offset="100%" stop-color="#5E6B52"/>
    </linearGradient>
  </defs>
  <rect width="512" height="512" rx="112" fill="url(#bg)"/>
  <path d="M256 96 C 168 96, 112 168, 112 256 C 112 336, 168 392, 248 408 L 248 312 C 200 304, 168 280, 152 240 C 200 248, 240 264, 264 296 C 272 248, 296 208, 336 184 C 336 248, 312 304, 256 336 L 256 416 C 344 408, 400 336, 400 248 C 400 160, 344 96, 256 96 Z" fill="#F6F1E7"/>
</svg>
